<?xml version="1.0" encoding="iso-8859-1"?>
<!-- Generator: Adobe Illustrator 18.0.0, SVG Export Plug-In . SVG Version: 6.00 Build 0)  -->
<!DOCTYPE svg PUBLIC "-//W3C//DTD SVG 1.1//EN" "http://www.w3.org/Graphics/SVG/1.1/DTD/svg11.dtd">
<svg version="1.1" id="Capa_1" xmlns="http://www.w3.org/2000/svg" xmlns:xlink="http://www.w3.org/1999/xlink" x="0px" y="0px"
	 viewBox="0 0 512 512" style="enable-background:new 0 0 512 512;" xml:space="preserve">
	  <style type="text/css">
    path {
      fill: #FFF;
      stroke: #FFF;
      stroke-width: 5;
    }
  </style>
<g>
	<path d="M506.309,238.459C445.412,154.281,354.177,106,256,106S66.588,154.281,5.691,238.459c-7.588,10.474-7.588,24.609,0,35.083
		C66.588,357.719,157.824,406,256,406s189.412-48.281,250.309-132.458C513.897,263.068,513.897,248.932,506.309,238.459z M256,361
		c-58.221,0-105.412-47-105.412-105S197.779,151,256,151c58.213,0,105.412,46.999,105.412,105S314.213,361,256,361z"/>
	<path d="M256,181v75h-75.294c0,41.426,33.706,75,75.294,75c41.581,0,75.294-33.574,75.294-75S297.581,181,256,181z"/>
</g>
<g>
</g>
<g>
</g>
<g>
</g>
<g>
</g>
<g>
</g>
<g>
</g>
<g>
</g>
<g>
</g>
<g>
</g>
<g>
</g>
<g>
</g>
<g>
</g>
<g>
</g>
<g>
</g>
<g>
</g>
</svg>
